# xmcd CD database file
# Copyright (C) 1993-1998 Ti Kan
#
# Track frame offsets:
#	150
#	18719
#	34091
#	68936
#	89855
#	107708
#	122325
#	136050
#	151745
#	166197
#	212833
#	223216
#	239911
#	250505
#
# Disc length: 3474 seconds
#
# Revision: 0
# Processed by: cddbd v1.4b41PL1 Copyright (c) Steve Scherf et al.
# Submitted via: CDmax 1.5
#
DISCID=c70d900e
DTITLE=Dave McLean - Muddy Waters for President
DYEAR=1900
DGENRE=
TTITLE0=Atlanta Moan
TTITLE1=Don't Go No Furhter
TTITLE2=Something On Your Mind
TTITLE3=Tribute to the Boogie Men
TTITLE4=Feel Like Goin Home
TTITLE5=T.V. Preacher Blues
TTITLE6=Tales of Last Night
TTITLE7=I Best Choose To Pick The Blues
TTITLE8=T-Bone Shuffle
TTITLE9=Muddy Waters For President
TTITLE10=The Tumble
TTITLE11=This Old Life
TTITLE12=Your Funeral My Trial
TTITLE13=had My Fun
EXTD=
EXTT0=
EXTT1=
EXTT2=
EXTT3=
EXTT4=
EXTT5=
EXTT6=
EXTT7=
EXTT8=
EXTT9=
EXTT10=
EXTT11=
EXTT12=
EXTT13=
PLAYORDER=
